HIERARCHY
ROOT SpineBase
{
  OFFSET 0.000000 0.000000 0.000000
  CHANNELS 6 Xposition Yposition Zposition Zrotation Xrotation Yrotation
  JOINT SpineMid
  {
    OFFSET 0.000000 6.051658 0.000000
    CHANNELS 3 Zrotation Xrotation Yrotation
    JOINT SpineShoulder
    {
      OFFSET -0.651617 4.720117 -0.212154
      CHANNELS 3 Zrotation Xrotation Yrotation
      JOINT Neck
      {
        OFFSET -0.490267 1.688314 -0.134026
        CHANNELS 3 Zrotation Xrotation Yrotation
        JOINT Head
        {
          OFFSET 3.792524 -5.949144 14.040080
          CHANNELS 3 Zrotation Xrotation Yrotation
          End Site
          {
            OFFSET 0 0 0
          }
        }
      }
      JOINT ShoulderLeft
      {
        OFFSET 30.128009 40.914626 39.999395
        CHANNELS 3 Zrotation Xrotation Yrotation
        JOINT ElbowLeft
        {
          OFFSET -8.082477 10.183664 16.450924
          CHANNELS 3 Zrotation Xrotation Yrotation
          JOINT WristLeft
          {
            OFFSET -9.520208 -18.839763 -18.541508
            CHANNELS 3 Zrotation Xrotation Yrotation
            JOINT HandLeft
            {
              OFFSET 0.847414 5.067973 5.556348
              CHANNELS 3 Zrotation Xrotation Yrotation
              JOINT HandTipLeft
              {
                OFFSET -6.834084 -1.603616 -6.395259
                CHANNELS 3 Zrotation Xrotation Yrotation
                End Site
                {
                  OFFSET 0 0 0
                }
              }
              JOINT ThumbLeft
              {
                OFFSET 0.073403 -4.306801 1.362935
                CHANNELS 3 Zrotation Xrotation Yrotation
                End Site
                {
                  OFFSET 0 0 0
                }
              }
            }
          }
        }
      }
      JOINT ShoulderRight
      {
        OFFSET -14.782529 16.690324 -13.280649
        CHANNELS 3 Zrotation Xrotation Yrotation
        JOINT ElbowRight
        {
          OFFSET 13.037977 -18.669709 13.126090
          CHANNELS 3 Zrotation Xrotation Yrotation
          JOINT WristRight
          {
            OFFSET 11.851677 -20.116751 13.024078
            CHANNELS 3 Zrotation Xrotation Yrotation
            JOINT HandRight
            {
              OFFSET 1.475194 -2.765488 -1.094014
              CHANNELS 3 Zrotation Xrotation Yrotation
              JOINT HandTipRight
              {
                OFFSET 2.381884 -2.592133 2.131023
                CHANNELS 3 Zrotation Xrotation Yrotation
                End Site
                {
                  OFFSET 0 0 0
                }
              }
              JOINT ThumbRight
              {
                OFFSET 0.892221 1.222714 1.674222
                CHANNELS 3 Zrotation Xrotation Yrotation
                End Site
                {
                  OFFSET 0 0 0
                }
              }
            }
          }
        }
      }
    }
  }
  JOINT HipLeft
  {
    OFFSET 5.606621 -0.383935 5.638976
    CHANNELS 3 Zrotation Xrotation Yrotation
    JOINT KneeLeft
    {
      OFFSET -35.596595 -31.578837 -35.725438
      CHANNELS 3 Zrotation Xrotation Yrotation
      JOINT AnkleLeft
      {
        OFFSET 32.451580 62.598648 -35.123262
        CHANNELS 3 Zrotation Xrotation Yrotation
        JOINT FootLeft
        {
          OFFSET -7.976135 9.517974 6.049162
          CHANNELS 3 Zrotation Xrotation Yrotation
          End Site
          {
            OFFSET 0 0 0
          }
        }
      }
    }
  }
  JOINT HipRight
  {
    OFFSET -11.804499 3.355153 -6.878204
    CHANNELS 3 Zrotation Xrotation Yrotation
    JOINT KneeRight
    {
      OFFSET 28.888260 27.134143 6.613785
      CHANNELS 3 Zrotation Xrotation Yrotation
      JOINT AnkleRight
      {
        OFFSET -31.580159 12.587939 13.598813
        CHANNELS 3 Zrotation Xrotation Yrotation
        JOINT FootRight
        {
          OFFSET -5.772863 9.709550 -8.355714
          CHANNELS 3 Zrotation Xrotation Yrotation
          End Site
          {
            OFFSET 0 0 0
          }
        }
      }
    }
  }
}
MOTION
Frames: 10
Frame Time: 0.033333
431.005010 38.315912 114.781912 -5.769912 5.786260 128.288574 0.029774 -0.159568 -127.415584 1.257700 -1.233788 0.482091 4.297197 -4.770441 -0.853574 0.000000 0.000000 0.000000 4.297197 -4.770441 -0.853574 -4.795909 8.558828 0.683925 113.856096 -81.191107 3.711348 -95.933690 -23.315244 74.326596 0.000000 0.000000 0.000000 0.000000 0.000000 0.000000 4.297197 -4.770441 -0.853574 -0.000000 0.000000 0.000000 26.217114 -16.547411 -14.513402 -50.171629 -17.737464 -23.452412 0.000000 0.000000 0.000000 0.000000 0.000000 0.000000 -13.647931 -2.879964 -130.431029 -5.050752 2.974789 2.311702 3.155830 -10.311033 -10.722517 0.000000 0.000000 0.000000 -8.704812 -2.791200 -129.245691 -1.795481 -0.696219 1.150471 9.544163 -3.047773 6.216973 0.000000 0.000000 0.000000
434.246154 36.396377 117.843858 -7.696545 5.481120 93.047598 0.526746 0.964939 -92.255515 0.257728 -0.847835 0.354720 8.345738 -5.234485 -0.463716 0.000000 0.000000 0.000000 8.345738 -5.234485 -0.463716 -6.703182 10.671997 1.625300 118.119014 -79.681338 -6.536779 -95.467198 -36.136799 71.595391 0.000000 0.000000 0.000000 0.000000 0.000000 0.000000 8.345738 -5.234485 -0.463716 -0.000000 0.000000 0.000000 29.177410 -18.896655 -15.750569 -39.487420 -21.029275 -12.127795 0.000000 0.000000 0.000000 0.000000 0.000000 0.000000 -11.390683 -15.868979 -99.353263 -9.208864 4.023773 5.503982 5.263985 -11.889089 -13.105008 0.000000 0.000000 0.000000 -6.244220 -14.112482 -94.886514 -6.723717 -0.213916 1.747302 10.077159 -2.089492 7.140058 0.000000 0.000000 0.000000
432.824091 42.394903 115.763970 -13.585591 8.407798 103.975691 -0.049573 -0.406744 -102.331754 2.127917 -1.528094 0.627650 10.840819 -7.213368 -0.531606 0.000000 0.000000 0.000000 10.840819 -7.213368 -0.531606 -6.251747 9.484870 1.689435 114.782395 -80.551131 -20.142493 -96.887884 -46.626987 70.246035 0.000000 0.000000 0.000000 0.000000 0.000000 0.000000 10.840819 -7.213368 -0.531606 -0.000000 0.000000 0.000000 25.341894 -18.537387 -15.038519 -21.593590 -24.206872 -7.028247 0.000000 0.000000 0.000000 0.000000 0.000000 0.000000 -19.473729 -18.329127 -110.539377 -9.360623 4.912712 4.796110 7.258936 -13.077674 -15.004312 0.000000 0.000000 0.000000 -11.930927 -15.248133 -105.832921 -4.059360 -0.653269 1.603822 10.527536 -3.505854 6.765924 0.000000 0.000000 0.000000
435.027083 43.499528 115.480422 -16.449537 11.884561 86.538436 0.179370 0.623820 -83.871795 1.202269 -1.495515 0.965637 15.405474 -11.202835 -0.490061 0.000000 0.000000 0.000000 15.405474 -11.202835 -0.490061 -6.045307 8.322442 1.986908 151.262839 -84.167990 13.141761 -100.623317 -49.875084 72.669366 0.000000 0.000000 0.000000 0.000000 0.000000 0.000000 15.405474 -11.202835 -0.490061 -0.000000 0.000000 0.000000 24.433634 -19.447363 -15.217669 -2.839181 -22.366929 4.535551 0.000000 0.000000 0.000000 0.000000 0.000000 0.000000 -17.172675 -27.548905 -94.169164 -10.723982 5.269666 5.797402 9.065094 -14.109943 -16.620572 0.000000 0.000000 0.000000 -9.803210 -22.387226 -88.186701 -5.281363 -0.843653 2.050285 10.781783 -3.799707 6.818695 0.000000 0.000000 0.000000
434.654003 45.691859 111.554803 -19.054131 14.944848 110.938994 0.109432 0.127352 -107.104036 1.895648 -1.899406 1.396998 16.509509 -14.016982 -0.691409 0.000000 0.000000 0.000000 16.509509 -14.016982 -0.691409 -5.788875 7.587730 2.059160 161.304602 -85.373144 14.520355 -103.144891 -58.682026 70.830883 0.000000 0.000000 0.000000 0.000000 0.000000 0.000000 16.509509 -14.016982 -0.691409 -0.000000 0.000000 0.000000 28.476102 -22.016228 -16.640572 6.269181 -14.510441 16.725884 0.000000 0.000000 0.000000 0.000000 0.000000 0.000000 -29.529123 -18.464446 -116.957779 -9.030125 5.125625 4.262918 8.851614 -13.547388 -16.055284 0.000000 0.000000 0.000000 -20.618188 -15.577941 -112.602217 -2.753634 -1.188505 1.864953 11.768392 -5.106382 6.949887 0.000000 0.000000 0.000000
433.182077 48.898343 104.391941 -22.609451 19.130943 125.336781 -0.202915 -0.205959 -119.605102 2.665157 -2.364444 2.082031 18.146293 -18.195227 -0.892752 0.000000 0.000000 0.000000 18.146293 -18.195227 -0.892752 -5.645067 6.364571 2.458627 90.861350 -77.660984 -71.958646 -105.978957 -74.086306 55.066244 0.000000 0.000000 0.000000 0.000000 0.000000 0.000000 18.146293 -18.195227 -0.892752 -0.000000 0.000000 0.000000 22.472943 -19.440766 -14.918998 17.837441 -11.074640 17.839355 0.000000 0.000000 0.000000 0.000000 0.000000 0.000000 -37.707977 -11.294035 -127.937914 -8.284218 5.390055 3.258211 7.594936 -12.355621 -14.519226 0.000000 0.000000 0.000000 -27.333036 -9.555361 -125.309144 -0.753462 -1.679207 1.953614 11.383021 -5.115699 6.638097 0.000000 0.000000 0.000000
429.806104 50.086078 102.504052 -24.968175 23.938006 140.532436 -0.707062 -0.247239 -132.575110 3.313693 -3.048919 2.878718 18.301080 -22.742205 -1.425217 0.000000 0.000000 0.000000 18.301080 -22.742205 -1.425217 -5.369257 4.881115 2.860683 -120.131735 -86.297300 80.982850 -111.386456 -70.923398 65.535957 0.000000 0.000000 0.000000 0.000000 0.000000 0.000000 18.301080 -22.742205 -1.425217 -0.000000 0.000000 0.000000 17.058640 -16.203512 -12.699394 27.507289 -9.664322 18.582371 0.000000 0.000000 0.000000 0.000000 0.000000 0.000000 -42.677375 0.129861 -136.183909 -6.787332 5.412060 1.699010 6.253713 -9.824302 -11.756481 0.000000 0.000000 0.000000 -31.387911 0.366799 -136.907495 1.573536 -2.197073 2.024864 10.368880 -4.901020 5.932491 0.000000 0.000000 0.000000
425.968333 46.522406 99.910751 -25.988361 22.953425 150.538213 -0.201464 -0.025095 -142.830777 2.726278 -2.652602 2.645361 20.745495 -22.369050 -0.717673 0.000000 0.000000 0.000000 20.745495 -22.369050 -0.717673 -4.892697 4.314894 2.664333 -118.788502 -59.820477 107.082419 -117.808219 -50.059228 89.555390 0.000000 0.000000 0.000000 0.000000 0.000000 0.000000 20.745495 -22.369050 -0.717673 -0.000000 0.000000 0.000000 14.413403 -13.324170 -10.913717 33.752045 -8.062057 20.803795 0.000000 0.000000 0.000000 0.000000 0.000000 0.000000 -39.102594 5.930723 -143.099574 -3.778662 3.781036 0.127977 4.431377 -6.083060 -7.683470 0.000000 0.000000 0.000000 -29.121577 5.354701 -145.764689 3.955568 -2.457093 1.812640 7.137111 -3.661255 3.944361 0.000000 0.000000 0.000000
427.725142 43.151517 99.073871 -17.334852 24.705793 150.174358 0.449306 0.490596 -143.693677 1.172328 -2.604930 2.767199 14.148471 -23.540151 -2.699116 0.000000 0.000000 0.000000 14.148471 -23.540151 -2.699116 -3.540744 3.191477 1.889809 -120.472503 -54.735996 110.278140 -120.702300 -48.078143 94.506967 0.000000 0.000000 0.000000 0.000000 0.000000 0.000000 14.148471 -23.540151 -2.699116 -0.000000 0.000000 0.000000 15.145268 -11.547225 -10.318894 35.506283 -4.015971 24.525058 0.000000 0.000000 0.000000 0.000000 0.000000 0.000000 -29.715072 12.832379 -141.263030 -0.594727 2.283476 -1.837327 5.203187 -2.381734 -5.067730 0.000000 0.000000 0.000000 -22.577189 9.551547 -148.386002 3.354672 -4.296470 4.045837 4.905747 -3.861454 1.984727 0.000000 0.000000 0.000000
429.597149 39.376177 101.595685 -16.045405 20.132239 152.899502 -0.394835 0.145465 -147.844847 2.119608 -2.602779 2.238296 11.937422 -18.338911 -2.383097 0.000000 0.000000 0.000000 11.937422 -18.338911 -2.383097 -3.430494 3.423309 1.674624 -107.182259 -64.476370 100.469787 -120.720374 -68.846079 82.553334 0.000000 0.000000 0.000000 0.000000 0.000000 0.000000 11.937422 -18.338911 -2.383097 -0.000000 0.000000 0.000000 18.060046 -10.918440 -10.766721 32.652933 4.046718 29.324306 0.000000 0.000000 0.000000 0.000000 0.000000 0.000000 -24.463354 11.289162 -145.614363 0.302186 1.713716 -2.246654 5.989781 -0.793068 -4.263195 0.000000 0.000000 0.000000 -17.930132 10.636493 -149.988382 5.397270 -2.095593 1.072126 6.271420 -6.282840 1.859127 0.000000 0.000000 0.000000
